<svg id="visual" viewBox="0 0 900 600" width="900" height="600" xmlns="http://www.w3.org/2000/svg" xmlns:xlink="http://www.w3.org/1999/xlink" version="1.1"><path d="M626 600L589 500L579 400L596 300L574 200L622 100L646 0L900 0L900 100L900 200L900 300L900 400L900 500L900 600Z" fill="#715df2"></path><path d="M696 600L667 500L622 400L644 300L697 200L681 100L622 0L900 0L900 100L900 200L900 300L900 400L900 500L900 600Z" fill="#097eee"></path><path d="M690 600L738 500L726 400L721 300L710 200L726 100L698 0L900 0L900 100L900 200L900 300L900 400L900 500L900 600Z" fill="#0090d6"></path><path d="M760 600L758 500L793 400L794 300L761 200L767 100L790 0L900 0L900 100L900 200L900 300L900 400L900 500L900 600Z" fill="#0097b0"></path><path d="M816 600L840 500L826 400L840 300L828 200L823 100L818 0L900 0L900 100L900 200L900 300L900 400L900 500L900 600Z" fill="#009473"></path></svg>
