<svg id="visual" viewBox="0 0 1400 1050" width="1400" height="1050" xmlns="http://www.w3.org/2000/svg" xmlns:xlink="http://www.w3.org/1999/xlink" version="1.1"><rect x="0" y="0" width="1400" height="1050" fill="#FFFFFF"></rect><defs><linearGradient id="grad1_0" x1="25%" y1="100%" x2="100%" y2="0%"><stop offset="23.333333333333336%" stop-color="#b0a4da" stop-opacity="1"></stop><stop offset="76.66666666666666%" stop-color="#b0a4da" stop-opacity="1"></stop></linearGradient></defs><defs><linearGradient id="grad1_1" x1="25%" y1="100%" x2="100%" y2="0%"><stop offset="23.333333333333336%" stop-color="#b0a4da" stop-opacity="1"></stop><stop offset="76.66666666666666%" stop-color="#d8d1ed" stop-opacity="1"></stop></linearGradient></defs><defs><linearGradient id="grad1_2" x1="25%" y1="100%" x2="100%" y2="0%"><stop offset="23.333333333333336%" stop-color="#ffffff" stop-opacity="1"></stop><stop offset="76.66666666666666%" stop-color="#d8d1ed" stop-opacity="1"></stop></linearGradient></defs><defs><linearGradient id="grad2_0" x1="0%" y1="100%" x2="75%" y2="0%"><stop offset="23.333333333333336%" stop-color="#b0a4da" stop-opacity="1"></stop><stop offset="76.66666666666666%" stop-color="#b0a4da" stop-opacity="1"></stop></linearGradient></defs><defs><linearGradient id="grad2_1" x1="0%" y1="100%" x2="75%" y2="0%"><stop offset="23.333333333333336%" stop-color="#d8d1ed" stop-opacity="1"></stop><stop offset="76.66666666666666%" stop-color="#b0a4da" stop-opacity="1"></stop></linearGradient></defs><defs><linearGradient id="grad2_2" x1="0%" y1="100%" x2="75%" y2="0%"><stop offset="23.333333333333336%" stop-color="#d8d1ed" stop-opacity="1"></stop><stop offset="76.66666666666666%" stop-color="#ffffff" stop-opacity="1"></stop></linearGradient></defs><g transform="translate(1400, 1050)"><path d="M-525 0C-493.3 -80.9 -461.5 -161.8 -421.8 -243.5C-382 -325.2 -334.1 -407.6 -262.5 -454.7C-190.9 -501.7 -95.4 -513.4 0 -525L0 0Z" fill="#ebe8f6"></path><path d="M-350 0C-328.8 -53.9 -307.7 -107.9 -281.2 -162.3C-254.6 -216.8 -222.8 -271.7 -175 -303.1C-127.2 -334.5 -63.6 -342.2 0 -350L0 0Z" fill="#c4bae3"></path><path d="M-175 0C-164.4 -27 -153.8 -53.9 -140.6 -81.2C-127.3 -108.4 -111.4 -135.9 -87.5 -151.6C-63.6 -167.2 -31.8 -171.1 0 -175L0 0Z" fill="#b0a4da"></path></g><g transform="translate(0, 0)"><path d="M525 0C514 96.5 502.9 192.9 454.7 262.5C406.4 332.1 321 374.7 239 414C157 453.2 78.5 489.1 0 525L0 0Z" fill="#ebe8f6"></path><path d="M350 0C342.6 64.3 335.3 128.6 303.1 175C270.9 221.4 214 249.8 159.3 276C104.7 302.1 52.3 326.1 0 350L0 0Z" fill="#c4bae3"></path><path d="M175 0C171.3 32.2 167.6 64.3 151.6 87.5C135.5 110.7 107 124.9 79.7 138C52.3 151.1 26.2 163 0 175L0 0Z" fill="#b0a4da"></path></g></svg>