<svg id="visual" viewBox="0 0 536 994" width="536" height="994" xmlns="http://www.w3.org/2000/svg" xmlns:xlink="http://www.w3.org/1999/xlink" version="1.1"><g transform="translate(-173.2001828075649 -2.8763720389620744)"><path d="M273.3 -547.2C314.3 -449.7 280.1 -295.9 355.2 -195.3C430.3 -94.7 614.7 -47.3 614.4 -0.2C614.1 47 429.1 94 363 210C296.8 326.1 349.4 511.2 308.7 604.5C268 697.9 134 699.4 46.3 619.3C-41.5 539.2 -83 377.4 -112 277.3C-141 177.3 -157.6 138.9 -189.3 102.9C-221.1 67 -268 33.5 -268 0C-268 -33.5 -221 -67 -215.6 -148.6C-210.2 -230.1 -246.4 -359.7 -217.3 -464.1C-188.3 -568.5 -94.2 -647.8 11 -666.8C116.2 -685.9 232.3 -644.7 273.3 -547.2" fill="#D7E1FC"></path></g></svg>