<?xml version="1.0" standalone="no"?>
<svg viewBox="0 0 200 200" xmlns="http://www.w3.org/2000/svg">
  <path fill="#D7E1FC" d="M27.5,-41.9C41.9,-33.6,64.2,-36.5,75.8,-29.3C87.4,-22,88.3,-4.6,84.4,11.1C80.6,26.9,72,40.9,61,52C50.1,63,36.6,71.1,22.8,73.2C8.9,75.3,-5.5,71.4,-21.9,69.1C-38.4,66.8,-56.9,66.1,-63.7,56.3C-70.4,46.5,-65.3,27.6,-57.8,14.4C-50.2,1.2,-40.2,-6.3,-32.7,-11.7C-25.2,-17.1,-20.2,-20.4,-15.2,-33.1C-10.2,-45.7,-5.1,-67.6,0.7,-68.8C6.6,-69.9,13.1,-50.3,27.5,-41.9Z" transform="translate(100 100)" />
</svg>
