<svg id="visual" viewBox="0 0 536 994" width="536" height="994" xmlns="http://www.w3.org/2000/svg" xmlns:xlink="http://www.w3.org/1999/xlink" version="1.1"><g transform="translate(242.2331465079916 437.47571919178347)"><path d="M176.4 -263.1C206.6 -184.8 194 -108.4 213.1 -32.8C232.1 42.8 282.8 117.7 294.5 238.4C306.3 359.2 279.2 525.9 202.8 551.1C126.3 576.3 0.6 460.1 -81.4 367.8C-163.4 275.5 -201.7 207 -217.7 143.1C-233.8 79.3 -227.7 20.1 -234.4 -58.6C-241.1 -137.4 -260.7 -235.7 -223.8 -312.8C-186.8 -390 -93.4 -446 -10.2 -433.9C73.1 -421.7 146.1 -341.5 176.4 -263.1" fill="#D7E1FC"></path></g></svg>