<svg id="visual" viewBox="0 0 1400 1100" width="1400" height="1100" xmlns="http://www.w3.org/2000/svg" xmlns:xlink="http://www.w3.org/1999/xlink" version="1.1"><g><g transform="translate(1243 974)"><path d="M113.3 -119.5C137.7 -88.8 142.2 -44.4 143.8 1.6C145.5 47.7 144.2 95.3 119.8 121.7C95.3 148.1 47.7 153.3 2.1 151.2C-43.5 149.1 -87 139.8 -114.6 113.4C-142.2 87 -153.9 43.5 -151.2 2.7C-148.5 -38.1 -131.3 -76.1 -103.7 -106.7C-76.1 -137.3 -38.1 -160.5 3.2 -163.7C44.4 -166.9 88.8 -150.1 113.3 -119.5Z" fill="#b0a4da"></path></g><g transform="translate(117 70)"><path d="M94.4 -88.7C119.1 -69.7 133.7 -34.8 135.2 1.5C136.7 37.8 125 75.6 100.3 104.1C75.6 132.6 37.8 151.8 1.9 149.9C-33.9 147.9 -67.8 124.8 -91.2 96.3C-114.6 67.8 -127.6 33.9 -124.4 3.1C-121.3 -27.6 -102.1 -55.3 -78.7 -74.3C-55.3 -93.4 -27.6 -103.9 3.6 -107.5C34.8 -111.1 69.7 -107.8 94.4 -88.7Z" fill="#b0a4da"></path></g><g transform="translate(798 106)"><path d="M116 -115.6C152.4 -79.6 185.3 -39.8 185.5 0.2C185.7 40.3 153.3 80.6 116.9 115.8C80.6 151 40.3 181.2 -4.5 185.7C-49.3 190.3 -98.7 169.2 -132.3 133.9C-166 98.7 -183.9 49.3 -177.9 6C-171.9 -37.3 -141.9 -74.6 -108.2 -110.5C-74.6 -146.5 -37.3 -181.1 1.3 -182.4C39.8 -183.6 79.6 -151.5 116 -115.6Z" fill="#b0a4da"></path></g><g transform="translate(184 982)"><path d="M100.8 -98.1C128.2 -73.4 146.2 -36.7 142.7 -3.5C139.2 29.7 114.2 59.4 86.8 90.7C59.4 122 29.7 154.8 -8.8 163.6C-47.3 172.4 -94.7 157.2 -126.2 126C-157.7 94.7 -173.4 47.3 -164.9 8.4C-156.5 -30.5 -123.9 -60.9 -92.4 -85.6C-60.9 -110.4 -30.5 -129.3 3.1 -132.5C36.7 -135.6 73.4 -122.8 100.8 -98.1Z" fill="#b0a4da"></path></g><g transform="translate(1292 354)"><path d="M123 -129.6C144.4 -101.7 136.3 -50.8 136.4 0C136.4 50.9 144.6 101.8 123.2 135.5C101.8 169.1 50.9 185.5 1.6 183.9C-47.6 182.2 -95.3 162.6 -131.9 128.9C-168.5 95.3 -194.2 47.6 -195.9 -1.7C-197.6 -51 -175.3 -102.1 -138.7 -130C-102.1 -157.9 -51 -162.7 -0.1 -162.6C50.8 -162.5 101.7 -157.5 123 -129.6Z" fill="#b0a4da"></path></g><g transform="translate(720 803)"><path d="M87.8 -80.6C114.4 -61.2 137 -30.6 144.2 7.2C151.4 45 143.2 90 116.6 118.5C90 146.9 45 158.8 6.7 152.1C-31.6 145.4 -63.2 120.1 -81.2 91.7C-99.3 63.2 -103.7 31.6 -104.5 -0.8C-105.3 -33.1 -102.3 -66.2 -84.3 -85.6C-66.2 -105 -33.1 -110.6 -1.3 -109.4C30.6 -108.1 61.2 -100 87.8 -80.6Z" fill="#b0a4da"></path></g></g></svg>