<svg id="visual" viewBox="0 0 1400 1200" width="1400" height="1200" xmlns="http://www.w3.org/2000/svg" xmlns:xlink="http://www.w3.org/1999/xlink" version="1.1"><path d="M0 552L26 570.3C52 588.7 104 625.3 155.8 597C207.7 568.7 259.3 475.3 311.2 491.3C363 507.3 415 632.7 466.8 670.8C518.7 709 570.3 660 622.2 661C674 662 726 713 777.8 705.5C829.7 698 881.3 632 933.2 639.5C985 647 1037 728 1088.8 769.2C1140.7 810.3 1192.3 811.7 1244.2 779.3C1296 747 1348 681 1374 648L1400 615L1400 1201L1374 1201C1348 1201 1296 1201 1244.2 1201C1192.3 1201 1140.7 1201 1088.8 1201C1037 1201 985 1201 933.2 1201C881.3 1201 829.7 1201 777.8 1201C726 1201 674 1201 622.2 1201C570.3 1201 518.7 1201 466.8 1201C415 1201 363 1201 311.2 1201C259.3 1201 207.7 1201 155.8 1201C104 1201 52 1201 26 1201L0 1201Z" fill="#0B8996" stroke-linecap="round" stroke-linejoin="miter"></path></svg>