<svg id="visual" viewBox="0 0 1400 700" width="1400" height="700" xmlns="http://www.w3.org/2000/svg" xmlns:xlink="http://www.w3.org/1999/xlink" version="1.1"><path d="M0 311L33.3 314.2C66.7 317.3 133.3 323.7 200 349.3C266.7 375 333.3 420 400 412C466.7 404 533.3 343 600 341.5C666.7 340 733.3 398 800 391.8C866.7 385.7 933.3 315.3 1000 320.2C1066.7 325 1133.3 405 1200 401C1266.7 397 1333.3 309 1366.7 265L1400 221L1400 701L1366.7 701C1333.3 701 1266.7 701 1200 701C1133.3 701 1066.7 701 1000 701C933.3 701 866.7 701 800 701C733.3 701 666.7 701 600 701C533.3 701 466.7 701 400 701C333.3 701 266.7 701 200 701C133.3 701 66.7 701 33.3 701L0 701Z" fill="#298893" stroke-linecap="round" stroke-linejoin="miter"></path></svg>