<svg id="visual" viewBox="0 0 1400 2000" width="1400" height="2000" xmlns="http://www.w3.org/2000/svg" xmlns:xlink="http://www.w3.org/1999/xlink" version="1.1"><path d="M0 1444L33.3 1448.7C66.7 1453.3 133.3 1462.7 200 1499.5C266.7 1536.3 333.3 1600.7 400 1589.2C466.7 1577.7 533.3 1490.3 600 1488C666.7 1485.7 733.3 1568.3 800 1559.7C866.7 1551 933.3 1451 1000 1458.2C1066.7 1465.3 1133.3 1579.7 1200 1573.8C1266.7 1568 1333.3 1442 1366.7 1379L1400 1316L1400 2001L1366.7 2001C1333.3 2001 1266.7 2001 1200 2001C1133.3 2001 1066.7 2001 1000 2001C933.3 2001 866.7 2001 800 2001C733.3 2001 666.7 2001 600 2001C533.3 2001 466.7 2001 400 2001C333.3 2001 266.7 2001 200 2001C133.3 2001 66.7 2001 33.3 2001L0 2001Z" fill="#298893" stroke-linecap="round" stroke-linejoin="miter"></path></svg>