<svg id="visual" viewBox="0 0 1400 700" width="1400" height="700" xmlns="http://www.w3.org/2000/svg" xmlns:xlink="http://www.w3.org/1999/xlink" version="1.1"><rect x="0" y="0" width="1400" height="700" fill="#FFFFFF"></rect><defs><linearGradient id="grad1_0" x1="50%" y1="100%" x2="100%" y2="0%"><stop offset="10%" stop-color="#ffffff" stop-opacity="1"></stop><stop offset="90%" stop-color="#ffffff" stop-opacity="1"></stop></linearGradient></defs><defs><linearGradient id="grad2_0" x1="0%" y1="100%" x2="50%" y2="0%"><stop offset="10%" stop-color="#ffffff" stop-opacity="1"></stop><stop offset="90%" stop-color="#ffffff" stop-opacity="1"></stop></linearGradient></defs><g transform="translate(1400, 700)"><path d="M-385 0C-364.4 -60.9 -343.9 -121.8 -314.4 -181.5C-284.9 -241.2 -246.4 -299.7 -192.5 -333.4C-138.6 -367.1 -69.3 -376.1 0 -385L0 0Z" fill="#B0A4DA"></path></g><g transform="translate(0, 0)"><path d="M385 0C377.4 71.6 369.8 143.2 333.4 192.5C297 241.8 231.9 268.7 171.5 297C111.1 325.4 55.6 355.2 0 385L0 0Z" fill="#B0A4DA"></path></g></svg>