<svg id="visual" viewBox="0 0 1400 1100" width="1400" height="1100" xmlns="http://www.w3.org/2000/svg" xmlns:xlink="http://www.w3.org/1999/xlink" version="1.1"><g transform="translate(-21.414410944620613 -247.53750298790183)"><path d="M290.4 -254.4C414.4 -241.9 579.5 -186.6 623.2 -87.8C667 11 589.4 153.2 512.3 304.3C435.3 455.4 358.7 615.3 227 693.6C95.3 771.8 -91.5 768.4 -252.7 705.1C-413.9 641.8 -549.5 518.6 -583.8 376.9C-618.2 235.2 -551.4 74.9 -471.4 -31.8C-391.4 -138.4 -298.2 -191.4 -217.5 -211.5C-136.7 -231.7 -68.3 -219 7.4 -227.8C83.1 -236.6 166.3 -266.9 290.4 -254.4" fill="#b0a4da"></path></g></svg>