<svg id="visual" viewBox="0 0 1400 900" width="1400" height="900" xmlns="http://www.w3.org/2000/svg" xmlns:xlink="http://www.w3.org/1999/xlink" version="1.1"><rect x="0" y="0" width="1400" height="900" fill="#FFFFFF"></rect><defs><linearGradient id="grad1_0" x1="35.7%" y1="100%" x2="100%" y2="0%"><stop offset="18.888888888888886%" stop-color="#ffffff" stop-opacity="1"></stop><stop offset="81.11111111111111%" stop-color="#ffffff" stop-opacity="1"></stop></linearGradient></defs><defs><linearGradient id="grad2_0" x1="0%" y1="100%" x2="64.3%" y2="0%"><stop offset="18.888888888888886%" stop-color="#ffffff" stop-opacity="1"></stop><stop offset="81.11111111111111%" stop-color="#ffffff" stop-opacity="1"></stop></linearGradient></defs><g transform="translate(1400, 900)"><path d="M-457.7 0C-422.8 -66.4 -388 -132.8 -354.2 -204.5C-320.4 -276.2 -287.7 -353.3 -228.8 -396.4C-170 -439.5 -85 -448.6 0 -457.7L0 0Z" fill="#B0A4DA"></path></g><g transform="translate(0, 0)"><path d="M457.7 0C441.8 77.3 425.9 154.6 389.7 225C353.6 295.4 297.2 358.8 228.8 396.4C160.5 434 80.3 445.8 0 457.7L0 0Z" fill="#B0A4DA"></path></g></svg>