<svg id="visual" viewBox="0 0 1400 900" width="1400" height="900" xmlns="http://www.w3.org/2000/svg" xmlns:xlink="http://www.w3.org/1999/xlink" version="1.1"><path d="M0 644L29.2 632.7C58.3 621.3 116.7 598.7 175 623C233.3 647.3 291.7 718.7 350 736.5C408.3 754.3 466.7 718.7 525 704.7C583.3 690.7 641.7 698.3 700 731.2C758.3 764 816.7 822 875 804.7C933.3 787.3 991.7 694.7 1050 651.3C1108.3 608 1166.7 614 1225 647.2C1283.3 680.3 1341.7 740.7 1370.8 770.8L1400 801L1400 901L1370.8 901C1341.7 901 1283.3 901 1225 901C1166.7 901 1108.3 901 1050 901C991.7 901 933.3 901 875 901C816.7 901 758.3 901 700 901C641.7 901 583.3 901 525 901C466.7 901 408.3 901 350 901C291.7 901 233.3 901 175 901C116.7 901 58.3 901 29.2 901L0 901Z" fill="#B0A4DA" stroke-linecap="round" stroke-linejoin="miter"></path></svg>